<svg width="800" height="400" class="lineChart" title="svg_title" version="1.1" xmlns="http://www.w3.org/2000/svg"><g transform="translate(50,20)"><g class="legendOrdinal" transform="translate(50,330)"><g class="legendCells"><g class="cell" transform="translate(0,0)"><circle class="swatch" r="10" style="fill: rgb(56, 141, 197);"></circle><text class="label" transform="translate(0,28)" style="text-anchor: middle;">happiness</text></g><g class="cell" transform="translate(90,0)"><circle class="swatch" r="10" style="fill: rgb(118, 183, 219);"></circle><text class="label" transform="translate(0,28)" style="text-anchor: middle;">contempt</text></g><g class="cell" transform="translate(180,0)"><circle class="swatch" r="10" style="fill: rgb(168, 208, 229);"></circle><text class="label" transform="translate(0,28)" style="text-anchor: middle;">surprise</text></g><g class="cell" transform="translate(270,0)"><circle class="swatch" r="10" style="fill: rgb(205, 224, 241);"></circle><text class="label" transform="translate(0,28)" style="text-anchor: middle;">neutral</text></g><g class="cell" transform="translate(360,0)"><circle class="swatch" r="10" style="fill: rgb(253, 214, 172);"></circle><text class="label" transform="translate(0,28)" style="text-anchor: middle;">sadness</text></g><g class="cell" transform="translate(450,0)"><circle class="swatch" r="10" style="fill: rgb(253, 183, 118);"></circle><text class="label" transform="translate(0,28)" style="text-anchor: middle;">fear</text></g><g class="cell" transform="translate(540,0)"><circle class="swatch" r="10" style="fill: rgb(253, 152, 68);"></circle><text class="label" transform="translate(0,28)" style="text-anchor: middle;">disgust</text></g><g class="cell" transform="translate(630,0)"><circle class="swatch" r="10" style="fill: rgb(233, 96, 10);"></circle><text class="label" transform="translate(0,28)" style="text-anchor: middle;">anger</text></g></g></g><g class="x axis" transform="translate(0,280)" fill="none" font-size="10" font-family="sans-serif" text-anchor="middle"><path class="domain" stroke="#000" d="M0.5,6V0.5H700.5V6"></path><g class="tick" opacity="1" transform="translate(0,0)"><line stroke="#000" y2="6" x1="0.5" x2="0.5"></line><text fill="#000" y="9" x="0.5" dy="0.71em">0</text></g><g class="tick" opacity="1" transform="translate(77.77777777777777,0)"><line stroke="#000" y2="6" x1="0.5" x2="0.5"></line><text fill="#000" y="9" x="0.5" dy="0.71em">2</text></g><g class="tick" opacity="1" transform="translate(155.55555555555554,0)"><line stroke="#000" y2="6" x1="0.5" x2="0.5"></line><text fill="#000" y="9" x="0.5" dy="0.71em">4</text></g><g class="tick" opacity="1" transform="translate(233.33333333333331,0)"><line stroke="#000" y2="6" x1="0.5" x2="0.5"></line><text fill="#000" y="9" x="0.5" dy="0.71em">6</text></g><g class="tick" opacity="1" transform="translate(311.1111111111111,0)"><line stroke="#000" y2="6" x1="0.5" x2="0.5"></line><text fill="#000" y="9" x="0.5" dy="0.71em">8</text></g><g class="tick" opacity="1" transform="translate(388.8888888888889,0)"><line stroke="#000" y2="6" x1="0.5" x2="0.5"></line><text fill="#000" y="9" x="0.5" dy="0.71em">10</text></g><g class="tick" opacity="1" transform="translate(466.66666666666663,0)"><line stroke="#000" y2="6" x1="0.5" x2="0.5"></line><text fill="#000" y="9" x="0.5" dy="0.71em">12</text></g><g class="tick" opacity="1" transform="translate(544.4444444444445,0)"><line stroke="#000" y2="6" x1="0.5" x2="0.5"></line><text fill="#000" y="9" x="0.5" dy="0.71em">14</text></g><g class="tick" opacity="1" transform="translate(622.2222222222222,0)"><line stroke="#000" y2="6" x1="0.5" x2="0.5"></line><text fill="#000" y="9" x="0.5" dy="0.71em">16</text></g><g class="tick" opacity="1" transform="translate(700,0)"><line stroke="#000" y2="6" x1="0.5" x2="0.5"></line><text fill="#000" y="9" x="0.5" dy="0.71em">18</text></g></g><g class="y axis" fill="none" font-size="10" font-family="sans-serif" text-anchor="end"><path class="domain" stroke="#000" d="M-6,280.5H0.5V0.5H-6"></path><g class="tick" opacity="1" transform="translate(0,280)"><line stroke="#000" x2="-6" y1="0.5" y2="0.5"></line><text fill="#000" x="-9" y="0.5" dy="0.32em">0.0</text></g><g class="tick" opacity="1" transform="translate(0,252)"><line stroke="#000" x2="-6" y1="0.5" y2="0.5"></line><text fill="#000" x="-9" y="0.5" dy="0.32em">0.1</text></g><g class="tick" opacity="1" transform="translate(0,224)"><line stroke="#000" x2="-6" y1="0.5" y2="0.5"></line><text fill="#000" x="-9" y="0.5" dy="0.32em">0.2</text></g><g class="tick" opacity="1" transform="translate(0,196)"><line stroke="#000" x2="-6" y1="0.5" y2="0.5"></line><text fill="#000" x="-9" y="0.5" dy="0.32em">0.3</text></g><g class="tick" opacity="1" transform="translate(0,168)"><line stroke="#000" x2="-6" y1="0.5" y2="0.5"></line><text fill="#000" x="-9" y="0.5" dy="0.32em">0.4</text></g><g class="tick" opacity="1" transform="translate(0,140)"><line stroke="#000" x2="-6" y1="0.5" y2="0.5"></line><text fill="#000" x="-9" y="0.5" dy="0.32em">0.5</text></g><g class="tick" opacity="1" transform="translate(0,111.99999999999997)"><line stroke="#000" x2="-6" y1="0.5" y2="0.5"></line><text fill="#000" x="-9" y="0.5" dy="0.32em">0.6</text></g><g class="tick" opacity="1" transform="translate(0,83.99999999999997)"><line stroke="#000" x2="-6" y1="0.5" y2="0.5"></line><text fill="#000" x="-9" y="0.5" dy="0.32em">0.7</text></g><g class="tick" opacity="1" transform="translate(0,56)"><line stroke="#000" x2="-6" y1="0.5" y2="0.5"></line><text fill="#000" x="-9" y="0.5" dy="0.32em">0.8</text></g><g class="tick" opacity="1" transform="translate(0,28)"><line stroke="#000" x2="-6" y1="0.5" y2="0.5"></line><text fill="#000" x="-9" y="0.5" dy="0.32em">0.9</text></g><g class="tick" opacity="1" transform="translate(0,0)"><line stroke="#000" x2="-6" y1="0.5" y2="0.5"></line><text fill="#000" x="-9" y="0.5" dy="0.32em">1.0</text></g></g><path class="line" value="happiness" d="M0,70.56C38.888888888888886,150.36,77.77777777777777,230.16,116.66666666666666,230.16C155.55555555555554,230.16,194.44444444444443,2.8000000000000114,233.33333333333331,2.8000000000000114C272.22222222222223,2.8000000000000114,311.1111111111111,40.03999999999999,350,40.03999999999999C388.88888888888886,40.03999999999999,427.77777777777777,0,466.66666666666663,0C505.55555555555554,0,544.4444444444445,235.76,583.3333333333334,235.76C622.2222222222223,235.76,661.1111111111111,117.88000000000001,700,0" style="fill: none; stroke: rgb(56, 141, 197); stroke-width: 2px;"></path><path class="line" value="contempt" d="M0,278.7932C38.888888888888886,278.096,77.77777777777777,277.3988,116.66666666666666,277.3988C155.55555555555554,277.3988,194.44444444444443,279.91012,233.33333333333331,279.91012C272.22222222222223,279.91012,311.1111111111111,277.494,350,277.494C388.88888888888886,277.494,427.77777777777777,279.99999988772,466.66666666666663,279.99999988772C505.55555555555554,279.99999988772,544.4444444444445,278.88,583.3333333333334,278.88C622.2222222222223,278.88,661.1111111111111,279.43999995226,700,279.99999990452" style="fill: none; stroke: rgb(118, 183, 219); stroke-width: 2px;"></path><path class="line" value="surprise" d="M0,279.3588C38.888888888888886,279.22159999999997,77.77777777777777,279.0844,116.66666666666666,279.0844C155.55555555555554,279.0844,194.44444444444443,279.90956,233.33333333333331,279.90956C272.22222222222223,279.90956,311.1111111111111,279.85132,350,279.85132C388.88888888888886,279.85132,427.77777777777777,279.999993812,466.66666666666663,279.999993812C505.55555555555554,279.999993812,544.4444444444445,278.698,583.3333333333334,278.698C622.2222222222223,278.698,661.1111111111111,279.3489989416,700,279.9999978832" style="fill: none; stroke: rgb(168, 208, 229); stroke-width: 2px;"></path><path class="line" value="neutral" d="M0,211.96C38.888888888888886,138.18,77.77777777777777,64.4,116.66666666666666,64.4C155.55555555555554,64.4,194.44444444444443,277.7656,233.33333333333331,277.7656C272.22222222222223,277.7656,311.1111111111111,245,350,245C388.88888888888886,245,427.77777777777777,279.9999594,466.66666666666663,279.9999594C505.55555555555554,279.9999594,544.4444444444445,50.96000000000001,583.3333333333334,50.96000000000001C622.2222222222223,50.96000000000001,661.1111111111111,165.479992832,700,279.999985664" style="fill: none; stroke: rgb(205, 224, 241); stroke-width: 2px;"></path><path class="line" value="sadness" d="M0,279.97494C38.888888888888886,279.93035,77.77777777777777,279.88576,116.66666666666666,279.88576C155.55555555555554,279.88576,194.44444444444443,279.990116,233.33333333333331,279.990116C272.22222222222223,279.990116,311.1111111111111,279.87008,350,279.87008C388.88888888888886,279.87008,427.77777777777777,279.99997396,466.66666666666663,279.99997396C505.55555555555554,279.99997396,544.4444444444445,278.4908,583.3333333333334,278.4908C622.2222222222223,278.4908,661.1111111111111,279.24539925659997,700,279.9999985132" style="fill: none; stroke: rgb(253, 214, 172); stroke-width: 2px;"></path><path class="line" value="fear" d="M0,279.9993588C38.888888888888886,279.9979994,77.77777777777777,279.99664,116.66666666666666,279.99664C155.55555555555554,279.99664,194.44444444444443,279.99832,233.33333333333331,279.99832C272.22222222222223,279.99832,311.1111111111111,279.992244,350,279.992244C388.88888888888886,279.992244,427.77777777777777,279.99999996416,466.66666666666663,279.99999996416C505.55555555555554,279.99999996416,544.4444444444445,279.91544,583.3333333333334,279.91544C622.2222222222223,279.91544,661.1111111111111,279.95771999246796,700,279.999999984936" style="fill: none; stroke: rgb(253, 183, 118); stroke-width: 2px;"></path><path class="line" value="disgust" d="M0,279.426C38.888888888888886,274.61699999999996,77.77777777777777,269.808,116.66666666666666,269.808C155.55555555555554,269.808,194.44444444444443,279.72,233.33333333333331,279.72C272.22222222222223,279.72,311.1111111111111,278.4236,350,278.4236C388.88888888888886,278.4236,427.77777777777777,279.9998656,466.66666666666663,279.9998656C505.55555555555554,279.9998656,544.4444444444445,278.8968,583.3333333333334,278.8968C622.2222222222223,278.8968,661.1111111111111,279.4483783,700,279.9999566" style="fill: none; stroke: rgb(253, 152, 68); stroke-width: 2px;"></path><path class="line" value="anger" d="M0,279.95744C38.888888888888886,279.65391999999997,77.77777777777777,279.3504,116.66666666666666,279.3504C155.55555555555554,279.3504,194.44444444444443,279.96752,233.33333333333331,279.96752C272.22222222222223,279.96752,311.1111111111111,279.3756,350,279.3756C388.88888888888886,279.3756,427.77777777777777,279.9999995296,466.66666666666663,279.9999995296C505.55555555555554,279.9999995296,544.4444444444445,278.3928,583.3333333333334,278.3928C622.2222222222223,278.3928,661.1111111111111,279.1963965,700,279.999993" style="fill: none; stroke: rgb(233, 96, 10); stroke-width: 2px;"></path></g></svg>